<svg xmlns:xlink="http://www.w3.org/1999/xlink" xmlns="http://www.w3.org/2000/svg" width="144" height="48" fill="none" viewBox="0 0 144 48" class="h-auto max-w-full mx-auto mb-3"><path fill="#FFFFFF" d="M0 0h144v48H0z"></path><path fill="#A5F3FC" d="M46 11a4 4 0 00-4 4v12a4 4 0 004 4h26.638l-2.412-5.858a3 3 0 013.916-3.916l17 7A3 3 0 0193 31h5a4 4 0 004-4V15a4 4 0 00-4-4H46z"></path><path fill="#22D3EE" d="M72.293 23.293a1 1 0 011.088-.218l17 7a1 1 0 01.013 1.844l-4.653 1.994 5.673 5.673a1 1 0 010 1.414L90 42.414a1 1 0 01-1.414 0l-5.673-5.672-1.994 4.652a1 1 0 01-1.844-.013l-7-17a1 1 0 01.218-1.088z"></path><path fill="#22D3EE" d="M38 15a8 8 0 018-8h52a8 8 0 018 8v12a8 8 0 01-8 8h-8.343l-.412-.412 1.937-.83A2.994 2.994 0 0092.236 33H98a6 6 0 006-6V15a6 6 0 00-6-6H46a6 6 0 00-6 6v12a6 6 0 006 6h27.462l.823 2H46a8 8 0 01-8-8V15z"></path></svg>