<svg xmlns:xlink="http://www.w3.org/1999/xlink" xmlns="http://www.w3.org/2000/svg" width="144" height="48" fill="none" viewBox="0 0 144 48" class="h-auto max-w-full mx-auto mb-3"><path fill="#FFFFFF" d="M0 0h144v48H0z"></path><path fill="#A5F3FC" fill-rule="evenodd" d="M63.559 48H92a4 4 0 004-4V34a4 4 0 00-4-4H81.559l-18 18zM67.898 40.498l19.943-19.942a4 4 0 000-5.657l-7.072-7.071a4 4 0 00-5.656 0L68 14.94v24.058c0 .509-.035 1.009-.102 1.499z" clip-rule="evenodd"></path><path fill="#22D3EE" fill-rule="evenodd" d="M52 0a4 4 0 00-4 4v35a9 9 0 1018 0V4a4 4 0 00-4-4H52zm5 42a3 3 0 100-6 3 3 0 000 6z" clip-rule="evenodd"></path></svg>