<svg xmlns:xlink="http://www.w3.org/1999/xlink" xmlns="http://www.w3.org/2000/svg" width="144" height="48" fill="none" viewBox="0 0 144 48" class="h-auto max-w-full mx-auto mb-3"><path fill="#FFFFFF" d="M0 0h144v48H0z"></path><path fill="url(&quot;#breakpoint_svg__paint0_linear&quot;)" fill-rule="evenodd" d="M108 24a1 1 0 011-1h15.586l-2.293-2.293a1 1 0 111.414-1.414l4 4a1 1 0 010 1.414l-4 4a1 1 0 11-1.414-1.414L124.586 25H109a1 1 0 01-1-1z" clip-rule="evenodd"></path><path fill="url(&quot;#breakpoint_svg__paint1_linear&quot;)" fill-rule="evenodd" d="M36 24a1 1 0 01-1 1H19.414l2.293 2.293a1 1 0 01-1.414 1.414l-4-4a1 1 0 010-1.414l4-4a1 1 0 011.414 1.414L19.414 23H35a1 1 0 011 1z" clip-rule="evenodd"></path><path fill="#A5F3FC" fill-rule="evenodd" d="M48 0a4 4 0 00-4 4v40a4 4 0 004 4h48a4 4 0 004-4V4a4 4 0 00-4-4H48zm1 7a2 2 0 100-4 2 2 0 000 4zm8-2a2 2 0 11-4 0 2 2 0 014 0zm4 2a2 2 0 100-4 2 2 0 000 4z" clip-rule="evenodd"></path><defs><linearGradient id="breakpoint_svg__paint0_linear" x1="105" x2="127" y1="24" y2="24" gradientUnits="userSpaceOnUse"><stop stop-color="#A5F3FC"></stop><stop offset="1" stop-color="#22D3EE"></stop></linearGradient><linearGradient id="breakpoint_svg__paint1_linear" x1="39" x2="17" y1="24" y2="24" gradientUnits="userSpaceOnUse"><stop stop-color="#A5F3FC"></stop><stop offset="1" stop-color="#22D3EE"></stop></linearGradient><linearGradient id="breakpoint_svg__paint0_linear" x1="105" x2="127" y1="24" y2="24" gradientUnits="userSpaceOnUse"><stop stop-color="#A5F3FC"></stop><stop offset="1" stop-color="#22D3EE"></stop></linearGradient><linearGradient id="breakpoint_svg__paint1_linear" x1="39" x2="17" y1="24" y2="24" gradientUnits="userSpaceOnUse"><stop stop-color="#A5F3FC"></stop><stop offset="1" stop-color="#22D3EE"></stop></linearGradient></defs></svg>