<svg xmlns:xlink="http://www.w3.org/1999/xlink" xmlns="http://www.w3.org/2000/svg" width="144" height="48" fill="none" viewBox="0 0 144 48" class="h-auto max-w-full mx-auto mb-3"><path fill="#FFFFFF" d="M0 0h144v48H0z"></path><path fill="#A5F3FC" fill-rule="evenodd" d="M62 12c-6.627 0-12 5.373-12 12s5.373 12 12 12h20c6.627 0 12-5.373 12-12s-5.373-12-12-12H62zm20 22c5.523 0 10-4.477 10-10s-4.477-10-10-10-10 4.477-10 10 4.477 10 10 10z" clip-rule="evenodd"></path><path fill="#FFFFFF" d="M18 12h24v24H18z"></path><path fill="#22D3EE" fill-rule="evenodd" d="M30 14a1 1 0 011 1v1a1 1 0 11-2 0v-1a1 1 0 011-1zm-7.071 2.929a1 1 0 011.414 0l.707.707a1 1 0 01-1.414 1.414l-.707-.707a1 1 0 010-1.414zm14.142 0a1 1 0 010 1.414l-.707.707a1 1 0 01-1.414-1.414l.707-.707a1 1 0 011.414 0zM25 24a5 5 0 1110 0 5 5 0 01-10 0zm-5 0a1 1 0 011-1h1a1 1 0 110 2h-1a1 1 0 01-1-1zm17 0a1 1 0 011-1h1a1 1 0 110 2h-1a1 1 0 01-1-1zm-2.05 4.95a1 1 0 011.414 0l.707.707a1 1 0 01-1.414 1.414l-.707-.707a1 1 0 010-1.414zm-11.314 0a1 1 0 011.414 1.414l-.707.707a1 1 0 01-1.414-1.414l.707-.707zM30 31a1 1 0 011 1v1a1 1 0 11-2 0v-1a1 1 0 011-1z" clip-rule="evenodd"></path><path fill="#FFFFFF" d="M102 12h24v24h-24z"></path><path fill="#22D3EE" d="M111.353 14.94c.283.283.37.708.221 1.08a8 8 0 0010.407 10.408 1 1 0 011.301 1.3A10.003 10.003 0 01114 34c-5.523 0-10-4.477-10-10 0-4.207 2.598-7.805 6.273-9.282a1 1 0 011.08.22z"></path></svg>