<svg xmlns:xlink="http://www.w3.org/1999/xlink" xmlns="http://www.w3.org/2000/svg" width="144" height="48" fill="none" viewBox="0 0 144 48" class="h-auto max-w-full mx-auto mb-3"><path fill="#FFFFFF" d="M0 0h144v48H0z"></path><path fill="#22D3EE" d="M71.293 26.293a1 1 0 011.088-.218l17 7a1 1 0 01.013 1.844l-4.653 1.994 5.673 5.673a1 1 0 010 1.414L89 45.414a1 1 0 01-1.414 0l-5.673-5.672-1.994 4.652a1 1 0 01-1.844-.013l-7-17a1 1 0 01.218-1.088z"></path><path fill="#22D3EE" d="M46 16a4 4 0 00-4 4v12a4 4 0 004 4h26.462l-3.236-7.858a3 3 0 013.916-3.916l17 7A3 3 0 0191.236 36H98a4 4 0 004-4V20a4 4 0 00-4-4H46z"></path><path fill="#A5F3FC" d="M54 8a4 4 0 00-4 4v2h44v-2a4 4 0 00-4-4H54zM62 2a4 4 0 00-4 4h28a4 4 0 00-4-4H62z"></path></svg>