<svg xmlns:xlink="http://www.w3.org/1999/xlink" xmlns="http://www.w3.org/2000/svg" width="144" height="48" fill="none" viewBox="0 0 144 48" class="h-auto max-w-full mx-auto mb-3"><path fill="#FFFFFF" d="M0 0h144v48H0z"></path><rect width="128" height="20" x="8" y="24" fill="url(&quot;#gradients_svg__paint0_linear&quot;)" rx="4"></rect><path fill="#22D3EE" fill-rule="evenodd" d="M2 4a2 2 0 00-2 2v12a2 2 0 002 2h4l2 2 2-2h4a2 2 0 002-2V6a2 2 0 00-2-2H2zm12 2H2v12h12V6zM130 4a2 2 0 00-2 2v12a2 2 0 002 2h4l2 2 2-2h4a2 2 0 002-2V6a2 2 0 00-2-2h-12zm12 2h-12v12h12V6z" clip-rule="evenodd"></path><path fill="#A5F3FC" d="M4 8h8v8H4z"></path><path fill="#22D3EE" d="M132 8h8v8h-8z"></path><defs><linearGradient id="gradients_svg__paint0_linear" x1="136" x2="8" y1="34.476" y2="34.476" gradientUnits="userSpaceOnUse"><stop stop-color="#22D3EE"></stop><stop offset="1" stop-color="#A5F3FC"></stop></linearGradient><linearGradient id="gradients_svg__paint0_linear" x1="136" x2="8" y1="34.476" y2="34.476" gradientUnits="userSpaceOnUse"><stop stop-color="#22D3EE"></stop><stop offset="1" stop-color="#A5F3FC"></stop></linearGradient></defs></svg>