<svg xmlns:xlink="http://www.w3.org/1999/xlink" xmlns="http://www.w3.org/2000/svg" width="144" height="48" fill="none" viewBox="0 0 144 48" class="h-auto max-w-full mx-auto mb-3"><path fill="#FFFFFF" d="M0 0h144v48H0z"></path><path fill="#A5F3FC" fill-rule="evenodd" d="M56 0a8 8 0 00-8 8v32a8 8 0 008 8h32a8 8 0 008-8V8a8 8 0 00-8-8H56zm10 8a2 2 0 00-2 2v4a2 2 0 002 2h2a2 2 0 002-2v-4a2 2 0 00-2-2h-2zm8 14a2 2 0 012-2h2a2 2 0 012 2v4a2 2 0 01-2 2h-2a2 2 0 01-2-2v-4zm-8 10a2 2 0 00-2 2v4a2 2 0 002 2h2a2 2 0 002-2v-4a2 2 0 00-2-2h-2z" clip-rule="evenodd"></path><path fill="#22D3EE" fill-rule="evenodd" d="M56 12a2 2 0 012-2h4a1 1 0 011 1v2a1 1 0 01-1 1h-4a2 2 0 01-2-2zm2 10a2 2 0 100 4h14a1 1 0 001-1v-2a1 1 0 00-1-1H58zm0 12a2 2 0 100 4h4a1 1 0 001-1v-2a1 1 0 00-1-1h-4zm14 0a1 1 0 00-1 1v2a1 1 0 001 1h14a2 2 0 100-4H72zm-1-23a1 1 0 011-1h14a2 2 0 110 4H72a1 1 0 01-1-1v-2zm11 11a1 1 0 00-1 1v2a1 1 0 001 1h4a2 2 0 100-4h-4z" clip-rule="evenodd"></path></svg>