<svg xmlns:xlink="http://www.w3.org/1999/xlink" xmlns="http://www.w3.org/2000/svg" fill="currentColor" class="flex-none text-indigo-400 w-12 h-12" width="48"  height="48" ><rect width="48" height="48" rx="12" fill="#818CF8"></rect><path d="M21.637 23.57c-.745 0-1.332.653-1.332 1.45 0 .797.6 1.45 1.332 1.45.744 0 1.332-.653 1.332-1.45.013-.797-.588-1.45-1.332-1.45zm4.767 0c-.744 0-1.332.653-1.332 1.45 0 .797.6 1.45 1.332 1.45.745 0 1.332-.653 1.332-1.45 0-.797-.587-1.45-1.332-1.45z" fill="#EEF2FF" class="text-indigo-50"></path><path d="M32.75 12.613H15.248a2.684 2.684 0 00-2.678 2.69v17.66a2.684 2.684 0 002.678 2.69h14.811l-.692-2.416 1.672 1.554 1.58 1.463 2.809 2.482V15.304a2.684 2.684 0 00-2.678-2.69zm-5.042 17.058s-.47-.561-.862-1.058c1.711-.483 2.364-1.554 2.364-1.554-.535.353-1.045.6-1.502.77a8.591 8.591 0 01-1.894.562 9.151 9.151 0 01-3.383-.013 10.964 10.964 0 01-1.92-.561 7.652 7.652 0 01-.953-.445c-.04-.026-.078-.039-.117-.065-.027-.013-.04-.026-.053-.039-.235-.13-.365-.222-.365-.222s.627 1.045 2.285 1.541c-.392.497-.875 1.084-.875 1.084-2.886-.091-3.983-1.985-3.983-1.985 0-4.206 1.88-7.615 1.88-7.615C20.211 18.661 22 18.7 22 18.7l.131.157c-2.35.679-3.435 1.71-3.435 1.71s.287-.156.77-.378c1.398-.614 2.508-.784 2.965-.823.079-.013.144-.026.223-.026a10.647 10.647 0 016.57 1.228s-1.033-.98-3.253-1.66l.183-.208s1.79-.04 3.67 1.371c0 0 1.881 3.41 1.881 7.615 0 0-1.11 1.894-3.997 1.985z" fill="#EEF2FF" class="text-indigo-50"></path></svg>