<svg xmlns:xlink="http://www.w3.org/1999/xlink" xmlns="http://www.w3.org/2000/svg" width="144" height="48" fill="none" viewBox="0 0 144 48" class="h-auto max-w-full mx-auto mb-3"><path fill="#FFFFFF" d="M0 0h144v48H0z"></path><rect width="24" height="24" x="26" y="13" fill="#A5F3FC" rx="4"></rect><path stroke="url(&quot;#animations_svg__paint0_linear&quot;)" stroke-linecap="round" stroke-linejoin="round" stroke-width="2px" d="M57 25h22m0 0l-4-4m4 4l-4 4" fill="none"></path><path fill="#22D3EE" d="M86.036 17.975a4 4 0 012.828-4.9l18.81-5.04a4 4 0 014.899 2.83l5.04 18.809a4 4 0 01-2.829 4.899l-18.81 5.04a4 4 0 01-4.898-2.829l-5.04-18.81z"></path><defs><linearGradient id="animations_svg__paint0_linear" x1="57" x2="79" y1="25" y2="25" gradientUnits="userSpaceOnUse"><stop stop-color="#A5F3FC"></stop><stop offset="1" stop-color="#22D3EE"></stop></linearGradient><linearGradient id="animations_svg__paint0_linear" x1="57" x2="79" y1="25" y2="25" gradientUnits="userSpaceOnUse"><stop stop-color="#A5F3FC"></stop><stop offset="1" stop-color="#22D3EE"></stop></linearGradient></defs></svg>